<?xml version="1.0" encoding="utf-8"?>
<!-- Generator: Adobe Illustrator 23.0.1, SVG Export Plug-In . SVG Version: 6.00 Build 0)  -->
<svg version="1.1" xmlns="http://www.w3.org/2000/svg" xmlns:xlink="http://www.w3.org/1999/xlink" x="0px" y="0px"
	 viewBox="0 0 1024 1024" style="enable-background:new 0 0 1024 1024;" xml:space="preserve">
<style type="text/css">
	.st0{fill:#EFF3F9;}
	.st1{fill:#102F38;}
	.st2{fill:#EF8A2E;}
	.st3{fill:#B4DEEF;}
	.st4{fill:#722E2E;}
	.st5{fill:none;stroke:#722E2E;stroke-width:5;stroke-linecap:round;stroke-miterlimit:10;}
</style>
<g id="Layer_1">
	<path id="bg" class="st0" d="M1012,1024H12c-6.6,0-12-5.4-12-12V12C0,5.4,5.4,0,12,0h1000c6.6,0,12,5.4,12,12v1000
		C1024,1018.6,1018.6,1024,1012,1024z"/>
	<path class="st1" d="M751.22,424.44c92.23,0,167,74.77,167,167c0,86.76-66.16,158.05-150.78,166.21c-1.76,0.04-2.74,0-4.22,0h-465
		c-1.99,0-4.01-0.34-5.51-0.57c-70.07-9.04-124.2-68.92-124.2-141.45c0-78.77,91.08-44.67,91.08-44.67S690.98,761.05,751.22,424.44z
		"/>
	<circle class="st2" cx="341.29" cy="376.82" r="181.86"/>
	<path class="st3" d="M898,542.92c0-92.23-74.77-167-167-167c-19.87,0-38.92,3.48-56.59,9.84c-26.54-56.99-84.31-96.51-151.32-96.51
		c-86.94,0-158.34,66.51-166.13,151.42c-19.75-10.34-42.21-16.19-66.04-16.19c-78.77,0-142.63,63.86-142.63,142.63
		c0,72.53,54.13,132.41,124.2,141.45c1.5,0.24,3.53,0.57,5.51,0.57h465c1.49,0,2.46,0.04,4.22,0
		C831.84,700.98,898,629.68,898,542.92z"/>
	<path class="st3" d="M-72.32,644c0-92.23-74.77-167-167-167c-19.87,0-38.92,3.48-56.59,9.84c-26.54-56.99-84.31-96.51-151.32-96.51
		c-86.94,0-158.34,66.51-166.13,151.42c-19.75-10.34-42.21-16.19-66.04-16.19c-78.77,0-142.63,63.86-142.63,142.63
		c0,72.53,54.13,132.41,124.2,141.45c1.5,0.24,3.53,0.57,5.51,0.57h465c1.49,0,2.46,0.04,4.22,0
		C-138.48,802.05-72.32,730.76-72.32,644z"/>
	<g>
		<path class="st4" d="M-692.37,512c23.83,0,48.17,0.77,67.92,11.11c6.82-74.39,67.38-128.55,139.52-142.35
			c-32.74-48-92.77-85.62-155.25-85.62c-100.44,0-181.86,81.42-181.86,181.86c0,30.06,10.57,65.32,23.48,90.3
			C-772.42,534.7-737.41,512-692.37,512z"/>
		<path class="st5" d="M-637.78,283.79c-109.53,0-198.32,84.82-198.32,189.45"/>
	</g>
</g>
<g id="Layer_2">
</g>
</svg>
